<svg xmlns="http://www.w3.org/2000/svg" xmlns:xlink="http://www.w3.org/1999/xlink" version="1.1" width="256" height="256" viewBox="0 0 256 256" xml:space="preserve">
<g style="stroke: none; stroke-width: 0; stroke-dasharray: none; stroke-linecap: butt; stroke-linejoin: miter; stroke-miterlimit: 10; fill: none; fill-rule: nonzero; opacity: 1;" transform="translate(1.4065934065934016 1.4065934065934016) scale(2.81 2.81)">
	<path d="M 24.318 52.178 c -0.125 0 -0.252 -0.012 -0.379 -0.036 c -0.941 -0.181 -1.622 -1.005 -1.622 -1.964 c 0 -25.078 25.37 -41.4 44 -42.513 V 2 c 0 -0.78 0.453 -1.488 1.161 -1.815 c 0.704 -0.328 1.539 -0.214 2.135 0.292 L 89.296 17.22 C 89.742 17.6 90 18.157 90 18.743 s -0.258 1.144 -0.704 1.523 L 69.613 37.01 c -0.595 0.505 -1.43 0.619 -2.135 0.292 c -0.708 -0.327 -1.161 -1.036 -1.161 -1.815 v -6.132 c -21.094 0.427 -34.596 7.677 -40.143 21.565 C 25.867 51.69 25.123 52.178 24.318 52.178 z M 70.317 6.327 v 3.277 c 0 1.104 -0.896 2 -2 2 c -14.175 0 -34.5 11.057 -40.361 28.55 c 8.125 -9.736 21.85 -14.819 40.361 -14.819 c 1.104 0 2 0.896 2 2 v 3.825 l 14.596 -12.417 L 70.317 6.327 z" style="stroke: none; stroke-width: 1; stroke-dasharray: none; stroke-linecap: butt; stroke-linejoin: miter; stroke-miterlimit: 10; fill: rgb(29,30,56); fill-rule: nonzero; opacity: 1;" transform=" matrix(1 0 0 1 0 0) " stroke-linecap="round"/>
	<path d="M 88 90 H 2 c -1.104 0 -2 -0.896 -2 -2 V 2 c 0 -1.104 0.896 -2 2 -2 h 51.479 c 1.104 0 2 0.896 2 2 s -0.896 2 -2 2 H 4 v 82 h 82 V 34.474 c 0 -1.104 0.896 -2 2 -2 s 2 0.896 2 2 V 88 C 90 89.104 89.104 90 88 90 z" style="stroke: none; stroke-width: 1; stroke-dasharray: none; stroke-linecap: butt; stroke-linejoin: miter; stroke-miterlimit: 10; fill: rgb(29,30,56); fill-rule: nonzero; opacity: 1;" transform=" matrix(1 0 0 1 0 0) " stroke-linecap="round"/>
</g>
</svg>