<svg xmlns="http://www.w3.org/2000/svg" xmlns:xlink="http://www.w3.org/1999/xlink" version="1.1" width="256" height="256" viewBox="0 0 256 256" xml:space="preserve">
<g style="stroke: none; stroke-width: 0; stroke-dasharray: none; stroke-linecap: butt; stroke-linejoin: miter; stroke-miterlimit: 10; fill: none; fill-rule: nonzero; opacity: 1;" transform="translate(1.4065934065934016 1.4065934065934016) scale(2.81 2.81)">
	<rect x="7.74" y="1" rx="0" ry="0" width="59.24" height="75.05" style="stroke: none; stroke-width: 1; stroke-dasharray: none; stroke-linecap: butt; stroke-linejoin: miter; stroke-miterlimit: 10; fill: rgb(247,225,195); fill-rule: nonzero; opacity: 1;" transform=" matrix(1 0 0 1 0 0) "/>
	<path d="M 67.059 58.344 l -4.007 -2.823 c -0.391 -0.273 -0.84 -0.453 -1.311 -0.525 l -4.929 -0.431 c -2.163 -0.334 -4.217 1.058 -4.708 3.191 l -0.156 0.677 c -0.483 2.096 0.704 4.216 2.744 4.9 l 5.102 0.995 c 0.391 0.131 0.753 0.339 1.063 0.61 l 5.042 4.851 c -2.625 2.484 -4.38 5.978 -4.957 9.927 l 18.743 0 c 0.707 -8.183 2.854 -13.299 1.837 -20.382 c -0.41 -2.854 -2.312 -5.276 -4.992 -6.339 l -9.471 -4.312 V 58.344 z" style="stroke: none; stroke-width: 1; stroke-dasharray: none; stroke-linecap: butt; stroke-linejoin: miter; stroke-miterlimit: 10; fill: rgb(254,201,163); fill-rule: nonzero; opacity: 1;" transform=" matrix(1 0 0 1 0 0) " stroke-linecap="round"/>
	<rect x="58.35" y="79.72" rx="0" ry="0" width="23.91" height="9.28" style="stroke: none; stroke-width: 1; stroke-dasharray: none; stroke-linecap: butt; stroke-linejoin: miter; stroke-miterlimit: 10; fill: rgb(15,36,51); fill-rule: nonzero; opacity: 1;" transform=" matrix(1 0 0 1 0 0) "/>
	<path d="M 53.819 77.05 H 7.742 c -0.552 0 -1 -0.447 -1 -1 V 1 c 0 -0.552 0.448 -1 1 -1 h 59.239 c 0.553 0 1 0.448 1 1 v 49.387 c 0 0.553 -0.447 1 -1 1 s -1 -0.447 -1 -1 V 2 H 8.742 v 73.05 h 45.077 c 0.553 0 1 0.447 1 1 S 54.372 77.05 53.819 77.05 z" style="stroke: none; stroke-width: 1; stroke-dasharray: none; stroke-linecap: butt; stroke-linejoin: miter; stroke-miterlimit: 10; fill: rgb(25,26,67); fill-rule: nonzero; opacity: 1;" transform=" matrix(1 0 0 1 0 0) " stroke-linecap="round"/>
	<path d="M 60.835 80.669 c -0.048 0 -0.097 -0.003 -0.146 -0.011 c -0.546 -0.079 -0.925 -0.587 -0.845 -1.134 c 0.552 -3.783 2.154 -7.229 4.548 -9.815 l -4.338 -4.173 c -0.166 -0.144 -0.39 -0.275 -0.637 -0.366 l -5.058 -0.986 c -0.043 -0.008 -0.085 -0.02 -0.126 -0.033 c -2.551 -0.855 -4.019 -3.477 -3.415 -6.098 l 0.156 -0.68 c 0.608 -2.64 3.184 -4.39 5.859 -3.972 l 4.889 0.426 c 0.686 0.104 1.286 0.344 1.802 0.702 l 9.454 6.661 c 0.451 0.318 0.56 0.942 0.241 1.394 c -0.317 0.451 -0.942 0.559 -1.394 0.241 l -9.448 -6.657 c -0.262 -0.183 -0.573 -0.307 -0.895 -0.356 l -4.889 -0.426 c -1.708 -0.262 -3.297 0.811 -3.671 2.436 l -0.156 0.68 c -0.367 1.594 0.51 3.188 2.043 3.733 l 5.06 0.986 c 0.043 0.009 0.085 0.02 0.127 0.033 c 0.521 0.176 0.995 0.447 1.408 0.809 l 5.103 4.907 c 0.197 0.189 0.308 0.451 0.307 0.725 s -0.114 0.534 -0.313 0.723 c -2.476 2.343 -4.138 5.681 -4.68 9.396 C 61.751 80.311 61.323 80.669 60.835 80.669 z" style="stroke: none; stroke-width: 1; stroke-dasharray: none; stroke-linecap: butt; stroke-linejoin: miter; stroke-miterlimit: 10; fill: rgb(25,26,67); fill-rule: nonzero; opacity: 1;" transform=" matrix(1 0 0 1 0 0) " stroke-linecap="round"/>
	<path d="M 79.673 80.669 c -0.028 0 -0.058 -0.001 -0.087 -0.004 c -0.551 -0.048 -0.958 -0.532 -0.91 -1.082 c 0.26 -3.003 0.699 -5.545 1.125 -8.003 c 0.729 -4.215 1.359 -7.854 0.728 -12.255 c -0.36 -2.512 -2.045 -4.651 -4.396 -5.583 l -2.446 -1.104 c -0.503 -0.228 -0.727 -0.819 -0.499 -1.323 c 0.228 -0.503 0.82 -0.727 1.323 -0.499 l 2.402 1.086 c 2.972 1.178 5.133 3.92 5.596 7.14 c 0.676 4.714 0.021 8.498 -0.737 12.88 c -0.419 2.417 -0.852 4.916 -1.104 7.834 C 80.623 80.276 80.187 80.669 79.673 80.669 z" style="stroke: none; stroke-width: 1; stroke-dasharray: none; stroke-linecap: butt; stroke-linejoin: miter; stroke-miterlimit: 10; fill: rgb(25,26,67); fill-rule: nonzero; opacity: 1;" transform=" matrix(1 0 0 1 0 0) " stroke-linecap="round"/>
	<path d="M 82.258 90 H 58.225 c -0.553 0 -1 -0.447 -1 -1 v -9.331 c 0 -0.553 0.447 -1 1 -1 h 24.033 c 0.553 0 1 0.447 1 1 V 89 C 83.258 89.553 82.811 90 82.258 90 z M 59.225 88 h 22.033 v -7.331 H 59.225 V 88 z" style="stroke: none; stroke-width: 1; stroke-dasharray: none; stroke-linecap: butt; stroke-linejoin: miter; stroke-miterlimit: 10; fill: rgb(25,26,67); fill-rule: nonzero; opacity: 1;" transform=" matrix(1 0 0 1 0 0) " stroke-linecap="round"/>
	<path d="M 21.556 29.526 c -0.684 0 -1.366 -0.146 -2.008 -0.438 c -1.181 -0.537 -2.082 -1.501 -2.538 -2.716 c -0.194 -0.517 0.068 -1.094 0.585 -1.288 c 0.518 -0.192 1.093 0.068 1.288 0.585 c 0.268 0.714 0.797 1.282 1.492 1.597 c 0.694 0.316 1.471 0.343 2.185 0.074 c 1.475 -0.553 2.225 -2.203 1.672 -3.678 c -0.317 -0.845 -0.999 -1.477 -1.87 -1.732 l -1.989 -0.726 c -1.418 -0.414 -2.577 -1.489 -3.117 -2.929 c -0.94 -2.507 0.335 -5.312 2.842 -6.253 c 2.505 -0.939 5.312 0.335 6.253 2.842 c 0.194 0.517 -0.068 1.093 -0.585 1.288 c -0.516 0.192 -1.093 -0.068 -1.288 -0.585 c -0.268 -0.714 -0.798 -1.282 -1.493 -1.598 c -0.695 -0.315 -1.47 -0.342 -2.185 -0.074 c -1.475 0.553 -2.225 2.203 -1.671 3.678 c 0.317 0.845 0.998 1.477 1.87 1.732 l 1.989 0.726 c 1.418 0.414 2.577 1.489 3.117 2.928 c 0.94 2.508 -0.335 5.313 -2.842 6.253 C 22.708 29.423 22.131 29.526 21.556 29.526 z" style="stroke: none; stroke-width: 1; stroke-dasharray: none; stroke-linecap: butt; stroke-linejoin: miter; stroke-miterlimit: 10; fill: rgb(25,26,67); fill-rule: nonzero; opacity: 1;" transform=" matrix(1 0 0 1 0 0) " stroke-linecap="round"/>
	<path d="M 21.681 13.719 c -0.552 0 -1 -0.448 -1 -1 v -2.155 c 0 -0.552 0.448 -1 1 -1 s 1 0.448 1 1 v 2.155 C 22.681 13.271 22.233 13.719 21.681 13.719 z" style="stroke: none; stroke-width: 1; stroke-dasharray: none; stroke-linecap: butt; stroke-linejoin: miter; stroke-miterlimit: 10; fill: rgb(25,26,67); fill-rule: nonzero; opacity: 1;" transform=" matrix(1 0 0 1 0 0) " stroke-linecap="round"/>
	<path d="M 21.681 31.675 c -0.552 0 -1 -0.448 -1 -1 v -2.156 c 0 -0.552 0.448 -1 1 -1 s 1 0.448 1 1 v 2.156 C 22.681 31.227 22.233 31.675 21.681 31.675 z" style="stroke: none; stroke-width: 1; stroke-dasharray: none; stroke-linecap: butt; stroke-linejoin: miter; stroke-miterlimit: 10; fill: rgb(25,26,67); fill-rule: nonzero; opacity: 1;" transform=" matrix(1 0 0 1 0 0) " stroke-linecap="round"/>
	<path d="M 57.506 30.597 H 36.827 c -0.552 0 -1 -0.448 -1 -1 s 0.448 -1 1 -1 h 20.679 c 0.553 0 1 0.448 1 1 S 58.059 30.597 57.506 30.597 z" style="stroke: none; stroke-width: 1; stroke-dasharray: none; stroke-linecap: butt; stroke-linejoin: miter; stroke-miterlimit: 10; fill: rgb(25,26,67); fill-rule: nonzero; opacity: 1;" transform=" matrix(1 0 0 1 0 0) " stroke-linecap="round"/>
	<path d="M 40.798 30.597 c -0.552 0 -1 -0.448 -1 -1 v -6.036 c 0 -0.552 0.448 -1 1 -1 s 1 0.448 1 1 v 6.036 C 41.798 30.149 41.351 30.597 40.798 30.597 z" style="stroke: none; stroke-width: 1; stroke-dasharray: none; stroke-linecap: butt; stroke-linejoin: miter; stroke-miterlimit: 10; fill: rgb(25,26,67); fill-rule: nonzero; opacity: 1;" transform=" matrix(1 0 0 1 0 0) " stroke-linecap="round"/>
	<path d="M 47.092 30.597 c -0.553 0 -1 -0.448 -1 -1 V 18.526 c 0 -0.552 0.447 -1 1 -1 s 1 0.448 1 1 v 11.071 C 48.092 30.149 47.645 30.597 47.092 30.597 z" style="stroke: none; stroke-width: 1; stroke-dasharray: none; stroke-linecap: butt; stroke-linejoin: miter; stroke-miterlimit: 10; fill: rgb(25,26,67); fill-rule: nonzero; opacity: 1;" transform=" matrix(1 0 0 1 0 0) " stroke-linecap="round"/>
	<path d="M 53.386 30.597 c -0.553 0 -1 -0.448 -1 -1 V 12.233 c 0 -0.552 0.447 -1 1 -1 s 1 0.448 1 1 v 17.364 C 54.386 30.149 53.938 30.597 53.386 30.597 z" style="stroke: none; stroke-width: 1; stroke-dasharray: none; stroke-linecap: butt; stroke-linejoin: miter; stroke-miterlimit: 10; fill: rgb(25,26,67); fill-rule: nonzero; opacity: 1;" transform=" matrix(1 0 0 1 0 0) " stroke-linecap="round"/>
	<path d="M 20.731 44.219 h -2.785 c -0.552 0 -1 -0.448 -1 -1 s 0.448 -1 1 -1 h 2.785 c 0.552 0 1 0.448 1 1 S 21.284 44.219 20.731 44.219 z" style="stroke: none; stroke-width: 1; stroke-dasharray: none; stroke-linecap: butt; stroke-linejoin: miter; stroke-miterlimit: 10; fill: rgb(25,26,67); fill-rule: nonzero; opacity: 1;" transform=" matrix(1 0 0 1 0 0) " stroke-linecap="round"/>
	<path d="M 20.731 53.03 h -2.785 c -0.552 0 -1 -0.447 -1 -1 s 0.448 -1 1 -1 h 2.785 c 0.552 0 1 0.447 1 1 S 21.284 53.03 20.731 53.03 z" style="stroke: none; stroke-width: 1; stroke-dasharray: none; stroke-linecap: butt; stroke-linejoin: miter; stroke-miterlimit: 10; fill: rgb(25,26,67); fill-rule: nonzero; opacity: 1;" transform=" matrix(1 0 0 1 0 0) " stroke-linecap="round"/>
	<path d="M 20.731 61.842 h -2.785 c -0.552 0 -1 -0.447 -1 -1 s 0.448 -1 1 -1 h 2.785 c 0.552 0 1 0.447 1 1 S 21.284 61.842 20.731 61.842 z" style="stroke: none; stroke-width: 1; stroke-dasharray: none; stroke-linecap: butt; stroke-linejoin: miter; stroke-miterlimit: 10; fill: rgb(25,26,67); fill-rule: nonzero; opacity: 1;" transform=" matrix(1 0 0 1 0 0) " stroke-linecap="round"/>
	<path d="M 58.493 44.219 H 29.275 c -0.552 0 -1 -0.448 -1 -1 s 0.448 -1 1 -1 h 29.218 c 0.553 0 1 0.448 1 1 S 59.046 44.219 58.493 44.219 z" style="stroke: none; stroke-width: 1; stroke-dasharray: none; stroke-linecap: butt; stroke-linejoin: miter; stroke-miterlimit: 10; fill: rgb(25,26,67); fill-rule: nonzero; opacity: 1;" transform=" matrix(1 0 0 1 0 0) " stroke-linecap="round"/>
	<path d="M 45.906 53.03 H 29.275 c -0.552 0 -1 -0.447 -1 -1 s 0.448 -1 1 -1 h 16.631 c 0.552 0 1 0.447 1 1 S 46.458 53.03 45.906 53.03 z" style="stroke: none; stroke-width: 1; stroke-dasharray: none; stroke-linecap: butt; stroke-linejoin: miter; stroke-miterlimit: 10; fill: rgb(25,26,67); fill-rule: nonzero; opacity: 1;" transform=" matrix(1 0 0 1 0 0) " stroke-linecap="round"/>
	<path d="M 42.13 61.842 H 29.275 c -0.552 0 -1 -0.447 -1 -1 s 0.448 -1 1 -1 H 42.13 c 0.552 0 1 0.447 1 1 S 42.682 61.842 42.13 61.842 z" style="stroke: none; stroke-width: 1; stroke-dasharray: none; stroke-linecap: butt; stroke-linejoin: miter; stroke-miterlimit: 10; fill: rgb(25,26,67); fill-rule: nonzero; opacity: 1;" transform=" matrix(1 0 0 1 0 0) " stroke-linecap="round"/>
</g>
</svg>