<svg xmlns="http://www.w3.org/2000/svg" xmlns:xlink="http://www.w3.org/1999/xlink" version="1.1" width="256" height="256" viewBox="0 0 256 256" xml:space="preserve">
<g style="stroke: none; stroke-width: 0; stroke-dasharray: none; stroke-linecap: butt; stroke-linejoin: miter; stroke-miterlimit: 10; fill: none; fill-rule: nonzero; opacity: 1;" transform="translate(1.4065934065934016 1.4065934065934016) scale(2.81 2.81)">
	<path d="M 60.494 21.336 c -0.486 -1.744 -2.091 -2.961 -3.9 -2.961 c -1.811 0 -3.415 1.218 -3.9 2.961 l -2.321 8.313 c -0.886 3.173 0.009 6.594 2.335 8.928 l 1.675 1.681 c 0.297 0.297 0.455 0.706 0.436 1.125 l -1.212 27.118 c -0.036 0.822 0.257 1.604 0.826 2.199 c 1.141 1.191 3.185 1.191 4.323 0 c 0.569 -0.595 0.862 -1.376 0.826 -2.199 l -1.212 -27.118 c -0.02 -0.42 0.139 -0.828 0.436 -1.125 l 1.675 -1.681 c 0 0 0 0 0 0 c 2.326 -2.334 3.221 -5.755 2.335 -8.928 L 60.494 21.336 z" style="stroke: none; stroke-width: 1; stroke-dasharray: none; stroke-linecap: butt; stroke-linejoin: miter; stroke-miterlimit: 10; fill: rgb(255,40,137); fill-rule: nonzero; opacity: 1;" transform=" matrix(1 0 0 1 0 0) " stroke-linecap="round"/>
	<path d="M 45 0 L 45 0 C 20.147 0 0 20.147 0 45 v 0 c 0 24.853 20.147 45 45 45 h 0 c 24.853 0 45 -20.147 45 -45 v 0 C 90 20.147 69.853 0 45 0 z M 34.776 16.875 c 0 -0.829 0.671 -1.5 1.5 -1.5 s 1.5 0.671 1.5 1.5 v 14.854 c 0 0.829 -0.671 1.5 -1.5 1.5 s -1.5 -0.671 -1.5 -1.5 V 16.875 z M 29.409 16.875 c 0 -0.829 0.671 -1.5 1.5 -1.5 s 1.5 0.671 1.5 1.5 v 14.854 c 0 0.829 -0.671 1.5 -1.5 1.5 s -1.5 -0.671 -1.5 -1.5 V 16.875 z M 40.878 36.676 l -2.596 2.716 l 1.295 28.975 c 0.074 1.649 -0.514 3.215 -1.655 4.407 c -1.141 1.193 -2.679 1.851 -4.33 1.851 s -3.188 -0.657 -4.33 -1.851 c -1.141 -1.192 -1.729 -2.758 -1.655 -4.407 l 1.295 -28.975 l -2.596 -2.716 c -1.668 -1.747 -2.561 -4.131 -2.449 -6.543 l 0.62 -13.328 c 0.039 -0.827 0.745 -1.455 1.568 -1.429 c 0.828 0.039 1.467 0.741 1.429 1.568 l -0.62 13.328 c -0.074 1.597 0.516 3.175 1.621 4.331 l 3.039 3.179 c 0.283 0.296 0.432 0.695 0.414 1.104 l -1.324 29.616 c -0.037 0.822 0.256 1.604 0.826 2.199 c 1.139 1.191 3.184 1.191 4.322 0 c 0.57 -0.596 0.863 -1.377 0.826 -2.199 l -1.324 -29.616 c -0.018 -0.409 0.131 -0.808 0.414 -1.104 l 3.039 -3.179 c 1.104 -1.155 1.695 -2.734 1.621 -4.331 l -0.62 -13.328 c -0.039 -0.828 0.601 -1.53 1.429 -1.568 c 0.845 -0.036 1.53 0.601 1.568 1.429 l 0.62 13.328 C 43.439 32.545 42.546 34.93 40.878 36.676 z M 62.604 40.695 L 62.604 40.695 l -1.209 1.213 l 1.182 26.458 c 0.074 1.649 -0.514 3.215 -1.654 4.408 c -1.141 1.192 -2.679 1.85 -4.329 1.85 c -1.651 0 -3.188 -0.657 -4.33 -1.851 c -1.141 -1.193 -1.729 -2.758 -1.654 -4.407 l 1.182 -26.458 l -1.209 -1.214 c -3.088 -3.098 -4.275 -7.64 -3.099 -11.852 l 2.32 -8.313 c 0.846 -3.035 3.639 -5.155 6.79 -5.155 s 5.943 2.12 6.79 5.155 l 2.319 8.313 C 66.88 33.055 65.692 37.597 62.604 40.695 z" style="stroke: none; stroke-width: 1; stroke-dasharray: none; stroke-linecap: butt; stroke-linejoin: miter; stroke-miterlimit: 10; fill: rgb(255,40,137); fill-rule: nonzero; opacity: 1;" transform=" matrix(1 0 0 1 0 0) " stroke-linecap="round"/>
</g>
</svg>